  0
SECTION
  2
HEADER
  9
$ACADVER
  1
AC1014
  9
$HANDSEED
  5
FFFF
  9
$MEASUREMENT
 70
     1
  0
ENDSEC
  0
SECTION
  2
TABLES
  0
TABLE
  2
VPORT
  5
8
330
0
100
AcDbSymbolTable
 70
     4
  0
VPORT
  5
2E
330
8
100
AcDbSymbolTableRecord
100
AcDbViewportTableRecord
  2
*ACTIVE
 70
     0
 10
0.0
 20
0.0
 11
1.0
 21
1.0
 12
210.0
 22
148.5
 13
0.0
 23
0.0
 14
10.0
 24
10.0
 15
10.0
 25
10.0
 16
0.0
 26
0.0
 36
1.0
 17
0.0
 27
0.0
 37
0.0
 40
341.0
 41
1.24
 42
50.0
 43
0.0
 44
0.0
 50
0.0
 51
0.0
 71
     0
 72
   100
 73
     1
 74
     3
 75
     0
 76
     0
 77
     0
 78
     0
  0
ENDTAB
  0
TABLE
  2
LTYPE
  5
5
330
0
100
AcDbSymbolTable
 70
     1
  0
LTYPE
  5
14
330
5
100
AcDbSymbolTableRecord
100
AcDbLinetypeTableRecord
  2
BYBLOCK
 70
     0
  3

 72
    65
 73
     0
 40
0.0
  0
LTYPE
  5
15
330
5
100
AcDbSymbolTableRecord
100
AcDbLinetypeTableRecord
  2
BYLAYER
 70
     0
  3

 72
    65
 73
     0
 40
0.0
  0
LTYPE
  5
16
330
5
100
AcDbSymbolTableRecord
100
AcDbLinetypeTableRecord
  2
CONTINUOUS
 70
     0
  3
Solid line
 72
    65
 73
     0
 40
0.0
  0
ENDTAB
  0
TABLE
  2
LAYER
  5
2
100
AcDbSymbolTable
 70
1
  0
LAYER
  5
50
100
AcDbSymbolTableRecord
100
AcDbLayerTableRecord
  2
0
 70
0
  6
CONTINUOUS
  0
ENDTAB
  0
TABLE
  2
STYLE
  5
3
330
0
100
AcDbSymbolTable
 70
     1
  0
STYLE
  5
11
330
3
100
AcDbSymbolTableRecord
100
AcDbTextStyleTableRecord
  2
STANDARD
 70
     0
 40
0.0
 41
1.0
 50
0.0
 71
     0
 42
2.5
  3
txt
  4

  0
ENDTAB
  0
TABLE
  2
VIEW
  5
6
330
0
100
AcDbSymbolTable
 70
     0
  0
ENDTAB
  0
TABLE
  2
UCS
  5
7
330
0
100
AcDbSymbolTable
 70
     0
  0
ENDTAB
  0
TABLE
  2
APPID
  5
9
330
0
100
AcDbSymbolTable
 70
     2
  0
APPID
  5
12
330
9
100
AcDbSymbolTableRecord
100
AcDbRegAppTableRecord
  2
ACAD
 70
     0
  0
ENDTAB
  0
TABLE
  2
DIMSTYLE
  5
A
330
0
100
AcDbSymbolTable
 70
     1
  0
DIMSTYLE
105
27
330
A
100
AcDbSymbolTableRecord
100
AcDbDimStyleTableRecord
  2
ISO-25
 70
     0
  3

  4

  5

  6

  7

 40
1.0
 41
2.5
 42
0.625
 43
3.75
 44
1.25
 45
0.0
 46
0.0
 47
0.0
 48
0.0
140
2.5
141
2.5
142
0.0
143
0.03937007874016
144
1.0
145
0.0
146
1.0
147
0.625
 71
     0
 72
     0
 73
     0
 74
     0
 75
     0
 76
     0
 77
     1
 78
     8
170
     0
171
     3
172
     1
173
     0
174
     0
175
     0
176
     0
177
     0
178
     0
270
     2
271
     2
272
     2
273
     2
274
     3
340
11
275
     0
280
     0
281
     0
282
     0
283
     0
284
     8
285
     0
286
     0
287
     3
288
     0
  0
ENDTAB
  0
TABLE
  2
BLOCK_RECORD
  5
1
330
0
100
AcDbSymbolTable
 70
     1
  0
BLOCK_RECORD
  5
1F
330
1
100
AcDbSymbolTableRecord
100
AcDbBlockTableRecord
  2
*MODEL_SPACE
  0
BLOCK_RECORD
  5
1B
330
1
100
AcDbSymbolTableRecord
100
AcDbBlockTableRecord
  2
*PAPER_SPACE
  0
ENDTAB
  0
ENDSEC
  0
SECTION
  2
BLOCKS
  0
BLOCK
  5
20
330
1F
100
AcDbEntity
  8
0
100
AcDbBlockBegin
  2
*MODEL_SPACE
 70
     0
 10
0.0
 20
0.0
 30
0.0
  3
*MODEL_SPACE
  1

  0
ENDBLK
  5
21
330
1F
100
AcDbEntity
  8
0
100
AcDbBlockEnd
  0
BLOCK
  5
1C
330
1B
100
AcDbEntity
 67
     1
  8
0
100
AcDbBlockBegin
  2
*PAPER_SPACE
  1

  0
ENDBLK
  5
1D
330
1B
100
AcDbEntity
 67
     1
  8
0
100
AcDbBlockEnd
  0
ENDSEC
  0
SECTION
  2
ENTITIES
  0
LWPOLYLINE
  5
100
100
AcDbEntity
  8
0
 62
1
100
AcDbPolyline
 90
2
 70
0
 10
24.968125
 20
35.614794
 30
0.0
 10
24.968125
 20
21.114804
 30
0.0
  0
SPLINE
  5
101
100
AcDbEntity
  8
0
 62
1
100
AcDbSpline
 70
0
 71
3
 72
13
 73
9
 74
7
 40
0.000000
 40
0.000000
 40
0.000000
 40
0.000000
 40
0.130889
 40
0.260695
 40
0.391584
 40
0.522473
 40
0.652279
 40
0.783168
 40
0.783168
 40
0.783168
 40
0.783168
 10
24.968125
 20
21.114804
 30
0.0
 10
24.971457
 20
21.071047
 30
0.0
 10
24.978094
 20
20.983895
 30
0.0
 10
25.030556
 20
20.861972
 30
0.0
 10
25.110372
 20
20.757049
 30
0.0
 10
25.215294
 20
20.677231
 30
0.0
 10
25.337215
 20
20.624767
 30
0.0
 10
25.424368
 20
20.618128
 30
0.0
 10
25.468125
 20
20.614795
 30
0.0
 11
24.968125
 21
21.114804
 31
0.0
 11
24.985253
 21
20.985041
 31
0.0
 11
25.034926
 21
20.865115
 31
0.0
 11
25.114568
 21
20.761245
 31
0.0
 11
25.218437
 21
20.681601
 31
0.0
 11
25.338362
 21
20.631926
 31
0.0
 11
25.468125
 21
20.614795
 31
0.0
  0
LWPOLYLINE
  5
102
100
AcDbEntity
  8
0
 62
1
100
AcDbPolyline
 90
2
 70
0
 10
25.468125
 20
20.614795
 30
0.0
 10
51.968125
 20
20.614795
 30
0.0
  0
SPLINE
  5
103
100
AcDbEntity
  8
0
 62
1
100
AcDbSpline
 70
0
 71
3
 72
13
 73
9
 74
7
 40
0.000000
 40
0.000000
 40
0.000000
 40
0.000000
 40
0.130889
 40
0.260695
 40
0.391583
 40
0.522472
 40
0.652278
 40
0.783167
 40
0.783167
 40
0.783167
 40
0.783167
 10
51.968125
 20
20.614795
 30
0.0
 10
52.011882
 20
20.618128
 30
0.0
 10
52.099034
 20
20.624767
 30
0.0
 10
52.220956
 20
20.677231
 30
0.0
 10
52.325877
 20
20.757050
 30
0.0
 10
52.405693
 20
20.861972
 30
0.0
 10
52.458154
 20
20.983895
 30
0.0
 10
52.464791
 20
21.071047
 30
0.0
 10
52.468124
 20
21.114804
 30
0.0
 11
51.968125
 21
20.614795
 31
0.0
 11
52.097888
 21
20.631926
 31
0.0
 11
52.217812
 21
20.681601
 31
0.0
 11
52.321681
 21
20.761245
 31
0.0
 11
52.401323
 21
20.865115
 31
0.0
 11
52.450996
 21
20.985041
 31
0.0
 11
52.468124
 21
21.114804
 31
0.0
  0
LWPOLYLINE
  5
104
100
AcDbEntity
  8
0
 62
1
100
AcDbPolyline
 90
2
 70
0
 10
52.468124
 20
21.114804
 30
0.0
 10
52.468124
 20
35.614794
 30
0.0
  0
SPLINE
  5
105
100
AcDbEntity
  8
0
 62
1
100
AcDbSpline
 70
0
 71
3
 72
10
 73
6
 74
4
 40
0.000000
 40
0.000000
 40
0.000000
 40
0.000000
 40
0.261429
 40
0.515104
 40
0.776533
 40
0.776533
 40
0.776533
 40
0.776533
 10
52.468124
 20
35.614794
 30
0.0
 10
52.454371
 20
35.702407
 30
0.0
 10
52.427274
 20
35.875033
 30
0.0
 10
52.228364
 20
36.073943
 30
0.0
 10
52.055737
 20
36.101040
 30
0.0
 10
51.968125
 20
36.114793
 30
0.0
 11
52.468124
 21
35.614794
 31
0.0
 11
52.399859
 21
35.867153
 31
0.0
 11
52.220484
 21
36.046528
 31
0.0
 11
51.968125
 21
36.114793
 31
0.0
  0
SPLINE
  5
106
100
AcDbEntity
  8
0
 62
1
100
AcDbSpline
 70
0
 71
3
 72
10
 73
6
 74
4
 40
0.000000
 40
0.000000
 40
0.000000
 40
0.000000
 40
0.261429
 40
0.515104
 40
0.776534
 40
0.776534
 40
0.776534
 40
0.776534
 10
25.468125
 20
36.114793
 30
0.0
 10
25.380512
 20
36.101040
 30
0.0
 10
25.207885
 20
36.073943
 30
0.0
 10
25.008975
 20
35.875034
 30
0.0
 10
24.981878
 20
35.702407
 30
0.0
 10
24.968125
 20
35.614794
 30
0.0
 11
25.468125
 21
36.114793
 31
0.0
 11
25.215765
 21
36.046528
 31
0.0
 11
25.036390
 21
35.867153
 31
0.0
 11
24.968125
 21
35.614794
 31
0.0
  0
LWPOLYLINE
  5
107
100
AcDbEntity
  8
0
 62
1
100
AcDbPolyline
 90
2
 70
0
 10
51.968125
 20
36.114793
 30
0.0
 10
25.468125
 20
36.114793
 30
0.0
  0
SPLINE
  5
108
100
AcDbEntity
  8
0
 62
1
100
AcDbSpline
 70
0
 71
3
 72
25
 73
21
 74
19
 40
0.000000
 40
0.000000
 40
0.000000
 40
0.000000
 40
0.436205
 40
0.866167
 40
1.302373
 40
1.738578
 40
2.168540
 40
2.604745
 40
3.040950
 40
3.470912
 40
3.907118
 40
4.343323
 40
4.773285
 40
5.209490
 40
5.645695
 40
6.075658
 40
6.511863
 40
6.948068
 40
7.378030
 40
7.814235
 40
7.814235
 40
7.814235
 40
7.814235
 10
50.218125
 20
27.114787
 30
0.0
 10
50.203190
 20
27.260930
 30
0.0
 10
50.173534
 20
27.551125
 30
0.0
 10
49.943451
 20
27.934623
 30
0.0
 10
49.606570
 20
28.219743
 30
0.0
 10
49.189406
 20
28.370961
 30
0.0
 10
48.746749
 20
28.370961
 30
0.0
 10
48.330170
 20
28.219743
 30
0.0
 10
47.990956
 20
27.934623
 30
0.0
 10
47.769540
 20
27.551125
 30
0.0
 10
47.692233
 20
27.114787
 30
0.0
 10
47.769540
 20
26.678449
 30
0.0
 10
47.990956
 20
26.294952
 30
0.0
 10
48.330170
 20
26.009831
 30
0.0
 10
48.746749
 20
25.858613
 30
0.0
 10
49.189407
 20
25.858613
 30
0.0
 10
49.606570
 20
26.009831
 30
0.0
 10
49.943451
 20
26.294952
 30
0.0
 10
50.173534
 20
26.678449
 30
0.0
 10
50.203191
 20
26.968644
 30
0.0
 10
50.218126
 20
27.114787
 30
0.0
 11
50.218125
 21
27.114787
 31
0.0
 11
50.142033
 21
27.544304
 31
0.0
 11
49.927052
 21
27.916662
 31
0.0
 11
49.593125
 21
28.197319
 31
0.0
 11
49.183107
 21
28.346179
 31
0.0
 11
48.753144
 21
28.346179
 31
0.0
 11
48.343126
 21
28.197319
 31
0.0
 11
48.009199
 21
27.916662
 31
0.0
 11
47.794218
 21
27.544304
 31
0.0
 11
47.718126
 21
27.114787
 31
0.0
 11
47.794218
 21
26.685270
 31
0.0
 11
48.009199
 21
26.312912
 31
0.0
 11
48.343126
 21
26.032255
 31
0.0
 11
48.753145
 21
25.883395
 31
0.0
 11
49.183107
 21
25.883395
 31
0.0
 11
49.593126
 21
26.032255
 31
0.0
 11
49.927052
 21
26.312912
 31
0.0
 11
50.142033
 21
26.685270
 31
0.0
 11
50.218126
 21
27.114787
 31
0.0
  0
LWPOLYLINE
  5
109
100
AcDbEntity
  8
0
 62
1
100
AcDbPolyline
 90
1
 70
1
 10
50.218126
 20
27.114787
 30
0.0
  0
ENDSEC
  0
SECTION
  2
OBJECTS
  0
DICTIONARY
  5
C
330
0
100
AcDbDictionary
  3
ACAD_GROUP
350
D
  3
ACAD_MLINESTYLE
350
17
  0
DICTIONARY
  5
D
330
C
100
AcDbDictionary
  0
DICTIONARY
  5
1A
330
C
100
AcDbDictionary
  0
DICTIONARY
  5
17
330
C
100
AcDbDictionary
  3
STANDARD
350
18
  0
DICTIONARY
  5
19
330
C
100
AcDbDictionary
  0
ENDSEC
  0
EOF
